<svg width="20" height="21" viewBox="0 0 20 20" fill="none" xmlns="http://www.w3.org/2000/svg">
<path d="M4.26253 6.1131C4.50377 6.1192 4.74378 6.07701 4.96844 5.98902C5.1931 5.90102 5.39785 5.76901 5.57063 5.60075C5.74341 5.4325 5.88072 5.23141 5.97447 5.00933C6.06823 4.78724 6.11653 4.54867 6.11653 4.30765C6.11653 4.06663 6.06823 3.82806 5.97447 3.60597C5.88072 3.38389 5.74341 3.1828 5.57063 3.01454C5.39785 2.84629 5.1931 2.71427 4.96844 2.62628C4.74378 2.53829 4.50377 2.4961 4.26253 2.5022C3.79102 2.51411 3.34283 2.70956 3.01356 3.04684C2.68429 3.38413 2.5 3.83657 2.5 4.30765C2.5 4.77873 2.68429 5.23116 3.01356 5.56845C3.34283 5.90574 3.79102 6.10119 4.26253 6.1131ZM7.77956 7.48236V17.5005H10.894V12.5469C10.894 11.2389 11.1404 9.97244 12.7624 9.97244C14.3636 9.97244 14.3833 11.4676 14.3833 12.6289V17.5016H17.5V12.0073C17.5 9.30803 16.9181 7.23508 13.7597 7.23508C12.2441 7.23508 11.226 8.06588 10.8107 8.85277H10.769V7.48236H7.77956ZM2.703 7.48236H5.82437V17.5005H2.703V7.48236Z" fill="black"/>
</svg>